<svg width="1920" height="1080" viewBox="0 0 1920 1080" fill="none" xmlns="http://www.w3.org/2000/svg">
<mask id="mask0_1147_10944" style="mask-type:alpha" maskUnits="userSpaceOnUse" x="0" y="0" width="1920" height="1080">
<rect width="1920" height="1080" fill="url(#paint0_linear_1147_10944)"/>
</mask>
<g mask="url(#mask0_1147_10944)">
<rect width="1920" height="1080" fill="url(#paint1_linear_1147_10944)"/>
<path opacity="0.4" d="M-8 6L619 411L562 922.5L-8 181V6Z" fill="url(#paint2_linear_1147_10944)"/>
<path opacity="0.2" d="M64 -217L907 327.419L830.364 1015L64 18.2428V-217Z" fill="url(#paint3_linear_1147_10944)"/>
<path opacity="0.2" d="M1603 726.014L689.125 1258L-419 616.987L494.875 85L1603 726.014Z" fill="url(#paint4_linear_1147_10944)"/>
<path opacity="0.5" d="M1380 699.733L679.001 1107L-171 616.267L529.999 209L1380 699.733Z" fill="url(#paint5_linear_1147_10944)"/>
<g filter="url(#filter0_f_1147_10944)">
<circle cx="8" cy="947" r="56" fill="url(#paint6_linear_1147_10944)" fill-opacity="0.3"/>
</g>
<path opacity="0.6" d="M1149 674.003L654.101 962L54 614.997L548.911 327L1149 674.003Z" fill="url(#paint7_linear_1147_10944)"/>
<path d="M936 656.116L638.149 833L277 619.873L574.84 443L936 656.116Z" stroke="url(#paint8_linear_1147_10944)" stroke-width="49" stroke-miterlimit="10"/>
<path d="M638 861L277 648.285V623.67L525.531 446L636.534 470.116" fill="url(#paint9_linear_1147_10944)"/>
<path d="M637.999 861.5L637.469 822.5L935.999 650V682.584" fill="url(#paint10_linear_1147_10944)"/>
<path d="M934.956 643.221L637.613 816.014L277.072 607.81L574.415 435.017L934.956 643.221Z" fill="url(#paint11_linear_1147_10944)"/>
<path d="M637.613 816.013L637.57 832.315L277.029 624.112L277.072 607.81L637.613 816.013Z" fill="url(#paint12_linear_1147_10944)"/>
<path d="M637.57 832.316L637.613 816.014L934.956 643.221L934.906 659.523" fill="url(#paint13_linear_1147_10944)"/>
<path d="M820.723 444.274V646.436L641.697 749.037L642.324 545.296L820.723 444.274Z" fill="url(#paint14_linear_1147_10944)"/>
<path d="M642.78 545.585L820.241 445.098V646.163L642.167 748.216L642.78 545.585Z" stroke="white" stroke-opacity="0.5" stroke-width="0.7298"/>
<path d="M642.389 534.975L641.776 749.036L405.271 612.666L406.301 395.29L642.389 534.975Z" fill="url(#paint15_linear_1147_10944)"/>
<path d="M406.367 394.639L641.92 535.25L641.306 748.215L405.754 612.393L406.367 394.639Z" stroke="white" stroke-opacity="0.5" stroke-width="0.7298"/>
<path d="M639.818 750.746L407.606 613.449L407.476 593.615L639.701 730.899L639.818 750.746Z" fill="url(#paint16_linear_1147_10944)" fill-opacity="0.3"/>
<path d="M818.845 626.942V646.711L643.759 750.747L643.629 730.978L818.845 626.942Z" fill="url(#paint17_linear_1147_10944)" fill-opacity="0.3"/>
<path d="M642.389 529.847L642.337 546.171L405.271 410.126L405.323 393.803L642.389 529.847Z" fill="url(#paint18_linear_1147_10944)"/>
<path d="M405.793 394.625L641.907 530.121L641.868 545.349L405.754 409.853L405.793 394.625Z" stroke="white" stroke-opacity="0.5" stroke-width="0.7298"/>
<path d="M821.415 429.033L821.363 445.383L642.389 546.17L642.441 529.82L821.415 429.033Z" fill="url(#paint19_linear_1147_10944)"/>
<path d="M642.911 530.107L820.933 429.855L820.894 445.096L642.872 545.348L642.911 530.107Z" stroke="white" stroke-opacity="0.5" stroke-width="0.7298"/>
<path d="M417.445 393.465L584.297 299.789L808.289 429.101L642.598 522.45L417.445 393.465Z" fill="url(#paint20_linear_1147_10944)" stroke="url(#paint21_linear_1147_10944)" stroke-width="9.4873"/>
<path fill-rule="evenodd" clip-rule="evenodd" d="M584.349 292.663L820.789 429.177L642.585 529.56L404.893 393.398L584.349 292.663Z" fill="url(#paint22_linear_1147_10944)" stroke="white" stroke-opacity="0.5" stroke-width="0.7298"/>
<path d="M636.946 490.693L636.908 502.565L465.896 403.629L465.934 391.758L636.946 490.693Z" fill="url(#paint23_linear_1147_10944)"/>
<path d="M766.09 417.378L766.052 429.268L636.946 502.563L636.984 490.673L766.09 417.378Z" fill="url(#paint24_linear_1147_10944)"/>
<path fill-rule="evenodd" clip-rule="evenodd" d="M595.078 318.207L765.638 417.484L637.096 490.485L465.633 391.465L595.078 318.207Z" fill="url(#paint25_linear_1147_10944)" stroke="white" stroke-opacity="0.5" stroke-width="0.7298"/>
<path d="M590.012 575.529C597.032 579.6 603.465 586.203 608.136 593.602C612.821 601.013 615.613 612.966 615.613 619.868V730.755L521.755 676.316V535.94L590.012 575.529Z" fill="url(#paint26_linear_1147_10944)" stroke="url(#paint27_linear_1147_10944)" stroke-width="2.9192"/>
<path d="M518.206 534.1V674.476L424.335 620.024V503.005C424.335 496.168 427.049 492.07 430.951 490.413C434.983 488.704 440.959 489.291 448.031 493.388L518.206 534.1Z" fill="url(#paint28_linear_1147_10944)" stroke="url(#paint29_linear_1147_10944)" stroke-width="2.9192"/>
<path d="M538.222 614.102C539.527 614.872 540.597 616.542 540.597 617.86V634.04C540.597 635.358 539.54 635.802 538.222 635.058C536.918 634.288 535.848 632.618 535.848 631.3V615.12C535.861 613.789 536.918 613.345 538.222 614.102Z" fill="#0973FF"/>
<path d="M502.195 593.197C503.5 593.967 504.57 595.637 504.57 596.955V613.148C504.57 614.453 503.513 614.91 502.195 614.153C500.89 613.383 499.82 611.713 499.82 610.395V594.215C499.82 592.884 500.877 592.44 502.195 593.197Z" fill="#0973FF"/>
<path d="M582.105 580.398L582.053 596.709L345 460.677L345.052 444.367L582.105 580.398Z" fill="url(#paint30_linear_1147_10944)"/>
<path d="M345.509 445.175L581.622 580.671L581.583 595.898L345.47 460.402L345.509 445.175Z" stroke="white" stroke-opacity="0.5" stroke-width="0.7298"/>
<path d="M642.676 546.757L642.624 563.107L582.104 596.72L582.157 580.383L642.676 546.757Z" fill="url(#paint31_linear_1147_10944)"/>
<path d="M582.627 580.658L642.194 547.566L642.155 562.833L582.588 595.911L582.627 580.658Z" stroke="white" stroke-opacity="0.5" stroke-width="0.7298"/>
<path d="M406.249 410.244L642.689 546.758L582.314 580.11L344.621 443.961L406.249 410.244Z" fill="url(#paint32_linear_1147_10944)"/>
<path d="M345.6 443.975L406.236 410.793L641.71 546.746L582.313 579.576L345.6 443.975Z" stroke="white" stroke-opacity="0.5" stroke-width="0.7298"/>
<g filter="url(#filter1_f_1147_10944)">
<path d="M606.336 420.467L735.226 408.764L753.428 420.467L712.596 443.2L620.11 440.248L606.336 420.467Z" fill="url(#paint33_linear_1147_10944)" fill-opacity="0.4"/>
</g>
<g opacity="0.29" filter="url(#filter2_f_1147_10944)">
<path d="M558.125 393.901L687.015 382.198L705.217 393.901L664.385 416.634L571.899 413.682L558.125 393.901Z" fill="url(#paint34_linear_1147_10944)"/>
</g>
<path d="M600.186 331.446L625.169 325.337L595.292 407.021L570.309 413.135L600.186 331.446Z" fill="url(#paint35_linear_1147_10944)"/>
<path d="M570.846 412.65L600.443 331.736L624.631 325.815L595.033 406.735L570.846 412.65Z" stroke="white" stroke-opacity="0.5" stroke-width="1.2671"/>
<path d="M675.985 367.432C676.319 370.858 676.48 374.229 676.48 377.784C676.437 421.476 645.942 448.594 608.445 437.85C602.917 436.269 597.572 433.779 592.388 430.865C609.171 386.038 620.743 361.808 598.158 348.203L598.997 345.353L675.985 367.432Z" fill="url(#paint36_linear_1147_10944)"/>
<path d="M701.464 372.755C701.469 372.395 701.469 372.04 701.469 371.68C701.469 370.959 701.464 370.244 701.448 369.534C701.448 369.464 701.443 369.389 701.443 369.325C701.421 368.324 701.389 367.33 701.34 366.34C701.34 366.313 701.34 366.286 701.34 366.259C701.335 366.114 701.319 365.98 701.313 365.835C701.265 365.012 701.217 364.178 701.152 363.356C701.147 363.232 701.136 363.108 701.125 362.985C701.077 362.436 701.028 361.877 700.975 361.318L675.991 367.432C676.061 368.109 676.115 368.787 676.163 369.464C676.222 370.293 676.276 371.115 676.324 371.949C676.33 372.116 676.346 372.282 676.351 372.449C676.4 373.438 676.432 374.433 676.454 375.433C676.47 376.213 676.48 376.998 676.48 377.789C676.48 378.493 676.459 379.192 676.448 379.886C676.432 380.327 676.427 380.768 676.416 381.214C676.394 381.736 676.368 382.263 676.341 382.779C676.314 383.209 676.292 383.639 676.265 384.059C676.222 384.591 676.185 385.124 676.136 385.656C676.104 386.048 676.066 386.452 676.029 386.85C675.975 387.393 675.905 387.931 675.841 388.468C675.792 388.839 675.755 389.21 675.706 389.581C675.631 390.119 675.55 390.641 675.459 391.173C675.405 391.544 675.351 391.91 675.287 392.281C675.19 392.829 675.082 393.367 674.98 393.916C674.91 394.254 674.856 394.593 674.792 394.927C674.695 395.384 674.588 395.841 674.485 396.293C674.389 396.712 674.303 397.142 674.2 397.562C674.114 397.911 674.018 398.266 673.921 398.616C673.786 399.132 673.657 399.659 673.507 400.17C673.421 400.476 673.324 400.783 673.227 401.089C673.055 401.654 672.888 402.218 672.711 402.772C672.609 403.079 672.507 403.369 672.399 403.676C672.2 404.257 671.996 404.837 671.786 405.407C671.668 405.719 671.549 406.026 671.426 406.338C671.189 406.94 670.947 407.542 670.7 408.134C670.571 408.435 670.442 408.741 670.313 409.032C669.984 409.763 669.651 410.484 669.302 411.199C669.205 411.398 669.119 411.597 669.017 411.79C668.931 411.962 668.839 412.129 668.753 412.296C668.495 412.796 668.237 413.291 667.968 413.775C667.844 413.995 667.731 414.205 667.608 414.425C667.376 414.834 667.14 415.232 666.898 415.635C666.726 415.92 666.548 416.216 666.371 416.496C666.14 416.867 665.898 417.238 665.656 417.603C665.478 417.878 665.301 418.152 665.118 418.421C664.935 418.69 664.752 418.953 664.559 419.211C664.22 419.695 663.876 420.174 663.521 420.636C663.333 420.894 663.134 421.147 662.935 421.4C662.574 421.857 662.214 422.309 661.843 422.75C661.633 423.002 661.424 423.26 661.209 423.508C661.036 423.701 660.87 423.895 660.698 424.083C660.391 424.433 660.079 424.771 659.757 425.105C659.574 425.298 659.396 425.487 659.213 425.68C658.88 426.019 658.547 426.352 658.203 426.68C658.03 426.842 657.869 427.008 657.697 427.17C657.245 427.595 656.799 428.003 656.337 428.407C656.267 428.46 656.207 428.52 656.138 428.579C655.611 429.036 655.073 429.482 654.53 429.912C654.368 430.041 654.202 430.16 654.04 430.294C653.653 430.59 653.261 430.886 652.868 431.171C652.664 431.321 652.459 431.461 652.25 431.606C651.884 431.864 651.508 432.117 651.131 432.364C650.921 432.504 650.701 432.644 650.491 432.778C650.099 433.031 649.695 433.273 649.292 433.515C649.104 433.628 648.905 433.746 648.711 433.859C648.157 434.182 647.598 434.489 647.028 434.79C646.985 434.811 646.942 434.838 646.899 434.854C646.286 435.177 645.668 435.478 645.044 435.763C644.856 435.849 644.657 435.94 644.458 436.021C644.022 436.22 643.576 436.408 643.135 436.596C642.904 436.688 642.662 436.785 642.425 436.871C642 437.037 641.581 437.193 641.156 437.349C640.919 437.441 640.672 437.521 640.435 437.607C639.984 437.763 639.532 437.909 639.075 438.054C638.865 438.118 638.65 438.188 638.435 438.247C637.768 438.446 637.091 438.629 636.402 438.796L661.386 432.682C662.069 432.52 662.741 432.327 663.419 432.139C663.628 432.074 663.843 432.009 664.059 431.94C664.516 431.8 664.973 431.655 665.419 431.499C665.666 431.418 665.903 431.327 666.14 431.241C666.564 431.09 666.984 430.923 667.409 430.762C667.645 430.665 667.877 430.579 668.119 430.482C668.559 430.299 669.006 430.106 669.441 429.912C669.64 429.821 669.829 429.74 670.028 429.649C670.657 429.358 671.275 429.057 671.883 428.74C671.926 428.719 671.974 428.692 672.012 428.67C672.576 428.369 673.136 428.062 673.69 427.745C673.889 427.627 674.077 427.514 674.276 427.396C674.679 427.159 675.072 426.912 675.469 426.659C675.685 426.525 675.9 426.379 676.109 426.245C676.486 425.998 676.857 425.739 677.228 425.481C677.432 425.336 677.637 425.196 677.841 425.046C678.233 424.761 678.626 424.46 679.013 424.158C679.175 424.029 679.341 423.906 679.503 423.777C680.046 423.346 680.583 422.905 681.11 422.448C681.18 422.395 681.239 422.335 681.309 422.271C681.766 421.868 682.224 421.459 682.67 421.04C682.842 420.873 683.003 420.711 683.175 420.55C683.514 420.222 683.853 419.889 684.186 419.545C684.369 419.356 684.547 419.174 684.729 418.975C685.052 418.641 685.359 418.297 685.67 417.953C685.843 417.759 686.009 417.571 686.181 417.372C686.262 417.275 686.353 417.184 686.439 417.087C686.569 416.937 686.692 416.775 686.821 416.619C687.187 416.173 687.558 415.727 687.913 415.27C688.112 415.017 688.305 414.764 688.499 414.506C688.854 414.033 689.193 413.565 689.537 413.081C689.65 412.909 689.784 412.753 689.897 412.581C689.967 412.489 690.026 412.387 690.096 412.29C690.279 412.027 690.456 411.747 690.634 411.473C690.871 411.102 691.112 410.736 691.349 410.36C691.527 410.075 691.699 409.79 691.876 409.494C692.005 409.284 692.134 409.08 692.258 408.865C692.365 408.671 692.478 408.472 692.581 408.284C692.704 408.064 692.828 407.854 692.941 407.639C693.204 407.155 693.468 406.66 693.726 406.166C693.812 405.993 693.903 405.821 693.989 405.655C694.016 405.601 694.043 405.552 694.07 405.499C694.14 405.354 694.199 405.208 694.269 405.069C694.619 404.359 694.957 403.638 695.28 402.901C695.339 402.767 695.404 402.643 695.463 402.503C695.538 402.342 695.597 402.165 695.667 402.003C695.92 401.406 696.162 400.81 696.404 400.202C696.479 400.003 696.565 399.815 696.64 399.616C696.684 399.508 696.716 399.39 696.764 399.277C696.974 398.702 697.178 398.126 697.377 397.545C697.458 397.309 697.549 397.083 697.63 396.841C697.651 396.782 697.673 396.712 697.689 396.647C697.872 396.088 698.039 395.524 698.205 394.959C698.286 394.685 698.377 394.427 698.453 394.152C698.463 394.12 698.474 394.077 698.48 394.045C698.625 393.534 698.759 393.012 698.894 392.491C698.98 392.163 699.071 391.84 699.152 391.507C699.157 391.48 699.162 391.453 699.173 391.426C699.275 391.006 699.367 390.576 699.469 390.151C699.566 389.732 699.668 389.313 699.754 388.888C699.759 388.856 699.77 388.823 699.77 388.796C699.84 388.458 699.899 388.108 699.969 387.769C700.066 387.28 700.168 386.785 700.249 386.29C700.254 386.242 700.265 386.194 700.27 386.145C700.329 385.78 700.389 385.403 700.448 385.027C700.523 384.575 700.598 384.118 700.668 383.65C700.674 383.586 700.684 383.516 700.695 383.446C700.743 383.08 700.781 382.704 700.83 382.333C700.883 381.897 700.948 381.456 700.991 381.015C701.007 380.913 701.012 380.811 701.018 380.714C701.061 380.322 701.093 379.918 701.125 379.526C701.158 379.128 701.201 378.735 701.233 378.332C701.238 378.203 701.249 378.063 701.254 377.934C701.281 377.509 701.308 377.079 701.33 376.649C701.351 376.288 701.378 375.928 701.389 375.557C701.394 375.401 701.394 375.24 701.4 375.079C701.416 374.638 701.426 374.197 701.432 373.75C701.443 373.433 701.459 373.1 701.464 372.755Z" fill="url(#paint37_linear_1147_10944)"/>
<path d="M599.003 345.362L623.987 339.248L700.97 361.322L675.986 367.431L599.003 345.362Z" fill="url(#paint38_linear_1147_10944)"/>
<path d="M675.997 367.075L600.331 345.383L623.981 339.602L699.647 361.295L675.997 367.075Z" stroke="white" stroke-opacity="0.5" stroke-width="1.2671"/>
<path d="M608.563 278.699C638.537 287.292 664.193 317.745 673.093 352.182L600.234 331.285L600.083 331.242L600.029 331.387L570.249 412.812C552.321 393.421 540.56 365.937 540.587 338.77H540.415H540.587C540.609 316.852 548.228 299.139 560.521 288.26C572.803 277.381 589.785 273.311 608.563 278.699L608.612 278.532L608.563 278.699Z" fill="url(#paint39_linear_1147_10944)"/>
<path d="M608.563 278.699C638.537 287.292 664.193 317.745 673.093 352.182L600.234 331.285L600.083 331.242L600.029 331.387L570.249 412.812C552.321 393.421 540.56 365.937 540.587 338.77H540.415H540.587C540.609 316.852 548.228 299.139 560.521 288.26C572.803 277.381 589.785 273.311 608.563 278.699ZM608.563 278.699L608.612 278.532L608.563 278.699Z" stroke="white" stroke-width="0.6335"/>
<mask id="mask1_1147_10944" style="mask-type:alpha" maskUnits="userSpaceOnUse" x="580" y="270" width="119" height="83">
<path d="M614.118 280.371C614.22 280.414 614.323 280.457 614.425 280.494C615.167 280.779 615.904 281.086 616.64 281.403C616.802 281.468 616.968 281.538 617.13 281.613C617.92 281.952 618.711 282.312 619.485 282.688C619.641 282.764 619.797 282.839 619.953 282.92C620.695 283.28 621.437 283.656 622.179 284.043C622.254 284.086 622.33 284.119 622.405 284.162C623.19 284.576 623.964 285.011 624.733 285.458C624.905 285.549 625.067 285.646 625.239 285.748C626.002 286.2 626.766 286.657 627.519 287.13C627.621 287.195 627.723 287.259 627.82 287.324C628.514 287.765 629.213 288.222 629.896 288.684C630.03 288.781 630.17 288.867 630.31 288.964C631.046 289.469 631.783 289.985 632.504 290.518C632.66 290.636 632.816 290.749 632.966 290.867C633.638 291.367 634.316 291.873 634.983 292.4C635.063 292.459 635.144 292.518 635.219 292.583C635.935 293.147 636.644 293.728 637.343 294.32C637.521 294.465 637.693 294.61 637.86 294.761C638.532 295.336 639.204 295.922 639.871 296.514C639.914 296.546 639.946 296.584 639.989 296.616C640.683 297.245 641.371 297.885 642.049 298.53C642.226 298.702 642.404 298.869 642.581 299.041C643.151 299.595 643.721 300.154 644.275 300.724C644.399 300.853 644.528 300.977 644.651 301.101C645.313 301.773 645.958 302.461 646.598 303.155C646.781 303.354 646.958 303.553 647.136 303.752C647.62 304.279 648.104 304.822 648.582 305.365C648.781 305.596 648.986 305.822 649.185 306.053C649.663 306.613 650.131 307.177 650.604 307.742C650.782 307.952 650.954 308.156 651.126 308.376C651.755 309.145 652.368 309.925 652.97 310.716C653.132 310.925 653.288 311.14 653.454 311.361C653.917 311.974 654.374 312.582 654.826 313.205C655.051 313.512 655.267 313.834 655.492 314.146C655.869 314.673 656.234 315.195 656.595 315.727C656.901 316.168 657.197 316.62 657.493 317.072C657.799 317.534 658.111 317.997 658.412 318.464C658.703 318.916 658.993 319.379 659.278 319.836C659.563 320.293 659.848 320.75 660.128 321.212C660.558 321.922 660.977 322.643 661.397 323.363C661.59 323.691 661.779 324.014 661.961 324.347C662.553 325.401 663.134 326.461 663.698 327.536C664.188 328.472 664.666 329.418 665.129 330.365C665.274 330.655 665.408 330.956 665.554 331.247C665.871 331.908 666.188 332.569 666.495 333.236C666.667 333.613 666.828 333.989 666.989 334.366C667.253 334.962 667.522 335.565 667.774 336.162C667.947 336.565 668.108 336.974 668.28 337.377C668.517 337.952 668.759 338.538 668.979 339.125C669.14 339.539 669.307 339.963 669.463 340.388C669.683 340.964 669.899 341.55 670.108 342.131C670.259 342.555 670.415 342.98 670.56 343.405C670.764 343.997 670.963 344.588 671.162 345.185C671.297 345.604 671.442 346.029 671.571 346.449C671.759 347.062 671.953 347.685 672.136 348.304C672.259 348.707 672.383 349.116 672.496 349.514C672.77 350.482 673.039 351.45 673.286 352.434L698.27 346.32C698.049 345.47 697.829 344.615 697.587 343.771C697.555 343.652 697.512 343.529 697.479 343.405C697.361 343.002 697.243 342.598 697.125 342.2C696.942 341.577 696.759 340.958 696.56 340.34C696.425 339.915 696.286 339.501 696.151 339.076C695.952 338.485 695.759 337.888 695.554 337.291C695.404 336.871 695.253 336.441 695.103 336.016C694.893 335.43 694.672 334.855 694.457 334.269C694.301 333.844 694.135 333.43 693.973 333.005C693.742 332.419 693.511 331.844 693.274 331.257C693.113 330.849 692.941 330.445 692.769 330.042C692.511 329.434 692.253 328.843 691.984 328.246C691.822 327.87 691.656 327.493 691.484 327.122C691.177 326.45 690.865 325.783 690.543 325.122C690.397 324.831 690.263 324.53 690.118 324.24C689.655 323.299 689.182 322.358 688.693 321.433C688.687 321.422 688.687 321.417 688.677 321.406C688.112 320.325 687.531 319.271 686.94 318.217C686.757 317.889 686.558 317.561 686.375 317.233C685.961 316.512 685.536 315.797 685.106 315.082C685.025 314.953 684.95 314.808 684.869 314.679C684.665 314.351 684.455 314.023 684.251 313.7C683.966 313.243 683.681 312.786 683.391 312.334C683.084 311.866 682.778 311.404 682.466 310.931C682.165 310.479 681.874 310.038 681.573 309.597C681.476 309.457 681.396 309.323 681.299 309.188C681.024 308.79 680.739 308.403 680.46 308.011C680.234 307.693 680.019 307.382 679.793 307.07C679.341 306.44 678.879 305.827 678.416 305.214C678.26 305.005 678.105 304.79 677.938 304.58C677.916 304.553 677.889 304.521 677.868 304.494C677.282 303.73 676.69 302.977 676.083 302.246C675.911 302.031 675.733 301.827 675.566 301.622C675.233 301.214 674.894 300.805 674.55 300.396C674.416 300.24 674.276 300.084 674.141 299.923C673.942 299.686 673.749 299.466 673.55 299.235C673.071 298.686 672.587 298.143 672.098 297.611C671.92 297.412 671.743 297.213 671.56 297.025C671.48 296.939 671.399 296.847 671.313 296.761C670.748 296.153 670.184 295.562 669.603 294.965C669.479 294.836 669.35 294.712 669.226 294.594C668.866 294.223 668.495 293.852 668.129 293.486C667.93 293.293 667.726 293.099 667.532 292.911C667.355 292.739 667.178 292.567 667 292.4C666.333 291.76 665.656 291.131 664.978 290.512C664.962 290.496 664.957 290.491 664.946 290.486C664.903 290.448 664.865 290.416 664.822 290.373C664.161 289.781 663.494 289.2 662.816 288.625C662.644 288.474 662.467 288.329 662.295 288.179C662.139 288.05 661.983 287.915 661.822 287.786C661.268 287.329 660.719 286.888 660.165 286.442C660.085 286.383 660.009 286.318 659.929 286.259C659.515 285.931 659.09 285.603 658.67 285.286C658.418 285.092 658.16 284.909 657.907 284.721C657.751 284.603 657.6 284.49 657.444 284.377C656.804 283.909 656.159 283.447 655.503 282.995C655.412 282.936 655.331 282.882 655.245 282.817C655.111 282.721 654.971 282.635 654.836 282.538C654.148 282.075 653.454 281.618 652.761 281.177C652.658 281.113 652.562 281.048 652.459 280.984C652.411 280.957 652.363 280.924 652.314 280.898C651.604 280.457 650.889 280.026 650.174 279.607C650.002 279.516 649.841 279.413 649.669 279.317C649.47 279.198 649.276 279.085 649.072 278.967C648.502 278.639 647.921 278.327 647.335 278.021C647.26 277.983 647.184 277.945 647.109 277.908C646.657 277.666 646.216 277.435 645.759 277.209C645.469 277.069 645.173 276.924 644.883 276.784C644.727 276.709 644.571 276.623 644.409 276.547C643.737 276.23 643.06 275.918 642.388 275.617C642.28 275.569 642.162 275.52 642.054 275.472C641.893 275.407 641.726 275.337 641.565 275.262C640.828 274.95 640.086 274.644 639.344 274.353C639.242 274.316 639.14 274.273 639.037 274.235C638.994 274.219 638.946 274.197 638.908 274.181C638.145 273.885 637.37 273.611 636.601 273.353C636.413 273.289 636.214 273.224 636.021 273.165C635.784 273.084 635.542 272.998 635.305 272.923C634.714 272.735 634.117 272.557 633.526 272.385C632.88 272.202 632.23 272.025 631.584 271.863C631.563 271.853 631.541 271.847 631.514 271.842C631.294 271.788 631.079 271.74 630.858 271.686C630.466 271.589 630.068 271.492 629.675 271.406C629.412 271.342 629.148 271.299 628.89 271.24C628.524 271.17 628.153 271.084 627.788 271.019C627.739 271.008 627.686 270.998 627.637 270.982C627.454 270.949 627.272 270.922 627.078 270.89C626.664 270.815 626.239 270.745 625.825 270.675C625.567 270.637 625.309 270.6 625.045 270.568C624.658 270.514 624.271 270.46 623.878 270.412C623.76 270.395 623.647 270.379 623.54 270.363C623.394 270.347 623.26 270.336 623.126 270.32C622.685 270.277 622.249 270.234 621.808 270.202C621.571 270.18 621.324 270.159 621.087 270.143C620.609 270.11 620.141 270.084 619.662 270.062C619.512 270.057 619.361 270.041 619.211 270.035C619.168 270.035 619.135 270.035 619.092 270.035C618.436 270.057 617.743 270.051 617.049 270.051C616.888 270.051 616.716 270.057 616.554 270.057C616.017 270.062 615.479 270.078 614.946 270.105C614.839 270.11 614.726 270.11 614.618 270.11C614.522 270.116 614.436 270.127 614.344 270.132C613.57 270.18 612.795 270.234 612.026 270.315C611.973 270.32 611.924 270.331 611.871 270.336C611.15 270.412 610.424 270.514 609.72 270.616C609.623 270.627 609.521 270.637 609.418 270.654C609.322 270.67 609.23 270.691 609.128 270.713C608.703 270.777 608.289 270.853 607.87 270.933C607.671 270.971 607.483 271.003 607.284 271.046C606.687 271.17 606.084 271.299 605.493 271.444C605.488 271.444 605.488 271.444 605.477 271.444L580.493 277.558C581.09 277.413 581.692 277.279 582.3 277.155C582.488 277.117 582.687 277.08 582.886 277.047C583.3 276.967 583.725 276.891 584.144 276.821C584.343 276.789 584.532 276.762 584.731 276.735C585.446 276.623 586.161 276.531 586.892 276.445C586.941 276.44 586.994 276.434 587.043 276.429C587.806 276.343 588.581 276.289 589.361 276.241C589.56 276.23 589.764 276.225 589.968 276.208C590.501 276.182 591.038 276.171 591.576 276.16C591.737 276.16 591.909 276.155 592.071 276.155C592.764 276.149 593.458 276.16 594.163 276.182C594.345 276.187 594.539 276.203 594.727 276.208C595.195 276.23 595.674 276.257 596.152 276.289C596.389 276.305 596.631 276.327 596.873 276.343C597.308 276.381 597.755 276.418 598.19 276.467C598.443 276.493 598.696 276.52 598.954 276.547C599.341 276.596 599.728 276.649 600.121 276.709C600.379 276.741 600.637 276.784 600.901 276.816C601.315 276.875 601.739 276.951 602.153 277.026C602.39 277.069 602.627 277.106 602.863 277.15C603.229 277.219 603.6 277.3 603.976 277.375C604.235 277.429 604.503 277.478 604.762 277.537C605.154 277.628 605.552 277.72 605.945 277.816C606.181 277.87 606.423 277.924 606.66 277.988C607.305 278.15 607.956 278.327 608.601 278.51C609.44 278.752 610.268 279.015 611.096 279.29C611.29 279.349 611.483 279.419 611.677 279.478C612.5 279.774 613.312 280.064 614.118 280.371Z" fill="white"/>
</mask>
<g mask="url(#mask1_1147_10944)">
<path d="M614.118 280.371C614.22 280.414 614.323 280.457 614.425 280.495C615.167 280.78 615.904 281.086 616.64 281.404C616.802 281.468 616.968 281.538 617.13 281.613C617.92 281.952 618.711 282.312 619.485 282.689C619.641 282.764 619.797 282.839 619.953 282.92C620.695 283.28 621.437 283.657 622.179 284.044C622.254 284.087 622.33 284.119 622.405 284.162C623.19 284.576 623.964 285.012 624.733 285.458C624.905 285.55 625.067 285.646 625.239 285.749C626.002 286.2 626.766 286.657 627.519 287.131C627.621 287.195 627.723 287.26 627.82 287.324C628.514 287.765 629.213 288.222 629.896 288.685C630.03 288.781 630.17 288.867 630.31 288.964C631.046 289.47 631.783 289.986 632.504 290.518C632.66 290.637 632.816 290.75 632.966 290.868C633.638 291.368 634.316 291.873 634.983 292.4C635.063 292.46 635.144 292.519 635.219 292.583C635.935 293.148 636.644 293.729 637.343 294.32C637.521 294.465 637.693 294.611 637.86 294.761C638.532 295.337 639.204 295.923 639.871 296.514C639.914 296.546 639.946 296.584 639.989 296.616C640.683 297.246 641.371 297.885 642.049 298.531C642.226 298.703 642.404 298.87 642.581 299.042C643.151 299.595 643.721 300.155 644.275 300.725C644.399 300.854 644.528 300.977 644.651 301.101C645.313 301.773 645.958 302.462 646.598 303.155C646.781 303.354 646.958 303.553 647.136 303.752C647.62 304.279 648.104 304.822 648.582 305.365C648.781 305.597 648.986 305.823 649.185 306.054C649.663 306.613 650.131 307.178 650.604 307.742C650.782 307.952 650.954 308.156 651.126 308.377C651.755 309.146 652.368 309.926 652.97 310.716C653.132 310.926 653.288 311.141 653.454 311.361C653.917 311.974 654.374 312.582 654.826 313.206C655.051 313.512 655.267 313.835 655.492 314.147C655.869 314.674 656.234 315.195 656.595 315.728C656.901 316.169 657.197 316.62 657.493 317.072C657.799 317.535 658.111 317.997 658.412 318.465C658.703 318.917 658.993 319.379 659.278 319.836C659.563 320.293 659.848 320.75 660.128 321.213C660.558 321.923 660.977 322.643 661.397 323.364C661.59 323.692 661.779 324.014 661.961 324.348C662.553 325.402 663.134 326.461 663.698 327.537C664.188 328.472 664.666 329.419 665.129 330.365C665.274 330.656 665.408 330.957 665.554 331.247C665.871 331.909 666.188 332.57 666.495 333.237C666.667 333.613 666.828 333.99 666.989 334.366C667.253 334.963 667.522 335.565 667.774 336.162C667.947 336.565 668.108 336.974 668.28 337.377C668.517 337.953 668.759 338.539 668.979 339.125C669.14 339.539 669.307 339.964 669.463 340.389C669.683 340.964 669.899 341.55 670.108 342.131C670.259 342.556 670.415 342.981 670.56 343.406C670.764 343.997 670.963 344.589 671.162 345.185C671.297 345.605 671.442 346.03 671.571 346.449C671.759 347.062 671.953 347.686 672.136 348.304C672.259 348.708 672.383 349.116 672.496 349.514C672.77 350.482 673.039 351.45 673.286 352.434L698.27 346.32C698.049 345.47 697.829 344.615 697.587 343.771C697.555 343.653 697.512 343.529 697.479 343.406C697.361 343.002 697.243 342.599 697.125 342.201C696.942 341.577 696.759 340.959 696.56 340.34C696.425 339.916 696.286 339.501 696.151 339.077C695.952 338.485 695.759 337.888 695.554 337.291C695.404 336.872 695.253 336.442 695.103 336.017C694.893 335.431 694.672 334.855 694.457 334.269C694.301 333.844 694.135 333.43 693.973 333.006C693.742 332.419 693.511 331.844 693.274 331.258C693.113 330.849 692.941 330.446 692.769 330.043C692.511 329.435 692.253 328.843 691.984 328.246C691.822 327.87 691.656 327.494 691.484 327.123C691.177 326.45 690.865 325.784 690.543 325.122C690.397 324.832 690.263 324.531 690.118 324.24C689.655 323.299 689.182 322.358 688.693 321.433C688.687 321.423 688.687 321.417 688.677 321.406C688.112 320.326 687.531 319.272 686.94 318.218C686.757 317.89 686.558 317.562 686.375 317.233C685.961 316.513 685.536 315.798 685.106 315.083C685.025 314.953 684.95 314.808 684.869 314.679C684.665 314.351 684.455 314.023 684.251 313.7C683.966 313.243 683.681 312.786 683.391 312.335C683.084 311.867 682.778 311.404 682.466 310.931C682.165 310.479 681.874 310.038 681.573 309.598C681.476 309.458 681.396 309.323 681.299 309.189C681.024 308.791 680.739 308.404 680.46 308.011C680.234 307.694 680.019 307.382 679.793 307.07C679.341 306.441 678.879 305.828 678.416 305.215C678.26 305.005 678.105 304.79 677.938 304.58C677.916 304.553 677.889 304.521 677.868 304.494C677.282 303.731 676.69 302.978 676.083 302.247C675.911 302.031 675.733 301.827 675.566 301.623C675.233 301.214 674.894 300.805 674.55 300.397C674.416 300.241 674.276 300.085 674.141 299.923C673.942 299.687 673.749 299.466 673.55 299.235C673.071 298.687 672.587 298.144 672.098 297.611C671.92 297.412 671.743 297.213 671.56 297.025C671.48 296.939 671.399 296.848 671.313 296.762C670.748 296.154 670.184 295.562 669.603 294.965C669.479 294.836 669.35 294.713 669.226 294.594C668.866 294.223 668.495 293.852 668.129 293.487C667.93 293.293 667.726 293.1 667.532 292.911C667.355 292.739 667.178 292.567 667 292.4C666.333 291.761 665.656 291.131 664.978 290.513C664.962 290.497 664.957 290.491 664.946 290.486C664.903 290.448 664.865 290.416 664.822 290.373C664.161 289.782 663.494 289.201 662.816 288.625C662.644 288.475 662.467 288.33 662.295 288.179C662.139 288.05 661.983 287.916 661.822 287.787C661.268 287.33 660.719 286.889 660.165 286.442C660.085 286.383 660.009 286.319 659.929 286.259C659.515 285.931 659.09 285.603 658.67 285.286C658.418 285.092 658.16 284.91 657.907 284.721C657.751 284.603 657.6 284.49 657.444 284.377C656.804 283.909 656.159 283.447 655.503 282.995C655.412 282.936 655.331 282.882 655.245 282.818C655.111 282.721 654.971 282.635 654.836 282.538C654.148 282.076 653.454 281.619 652.761 281.178C652.658 281.113 652.562 281.049 652.459 280.984C652.411 280.957 652.363 280.925 652.314 280.898C651.604 280.457 650.889 280.027 650.174 279.607C650.002 279.516 649.841 279.414 649.669 279.317C649.47 279.199 649.276 279.086 649.072 278.968C648.502 278.64 647.921 278.328 647.335 278.021C647.26 277.984 647.184 277.946 647.109 277.908C646.657 277.666 646.216 277.435 645.759 277.209C645.469 277.069 645.173 276.924 644.883 276.784C644.727 276.709 644.571 276.623 644.409 276.548C643.737 276.23 643.06 275.919 642.388 275.617C642.28 275.569 642.162 275.521 642.054 275.472C641.893 275.408 641.726 275.338 641.565 275.263C640.828 274.951 640.086 274.644 639.344 274.354C639.242 274.316 639.14 274.273 639.037 274.235C638.994 274.219 638.946 274.198 638.908 274.182C638.145 273.886 637.37 273.612 636.601 273.354C636.413 273.289 636.214 273.224 636.021 273.165C635.784 273.085 635.542 272.999 635.305 272.923C634.714 272.735 634.117 272.558 633.526 272.386C632.88 272.203 632.23 272.025 631.584 271.864C631.563 271.853 631.541 271.848 631.514 271.842C631.294 271.789 631.079 271.74 630.858 271.687C630.466 271.59 630.068 271.493 629.675 271.407C629.412 271.342 629.148 271.299 628.89 271.24C628.524 271.17 628.153 271.084 627.788 271.02C627.739 271.009 627.686 270.998 627.637 270.982C627.454 270.95 627.272 270.923 627.078 270.891C626.664 270.815 626.239 270.745 625.825 270.676C625.567 270.638 625.309 270.6 625.045 270.568C624.658 270.514 624.271 270.46 623.878 270.412C623.76 270.396 623.647 270.38 623.54 270.364C623.394 270.348 623.26 270.337 623.126 270.321C622.685 270.278 622.249 270.235 621.808 270.202C621.571 270.181 621.324 270.159 621.087 270.143C620.609 270.111 620.141 270.084 619.662 270.063C619.512 270.057 619.361 270.041 619.211 270.036C619.168 270.036 619.135 270.036 619.092 270.036C618.436 270.057 617.743 270.052 617.049 270.052C616.888 270.052 616.716 270.057 616.554 270.057C616.017 270.063 615.479 270.079 614.946 270.106C614.839 270.111 614.726 270.111 614.618 270.111C614.522 270.116 614.436 270.127 614.344 270.132C613.57 270.181 612.795 270.235 612.026 270.315C611.973 270.321 611.924 270.331 611.871 270.337C611.15 270.412 610.424 270.514 609.72 270.616C609.623 270.627 609.521 270.638 609.418 270.654C609.322 270.67 609.23 270.692 609.128 270.713C608.703 270.778 608.289 270.853 607.87 270.934C607.671 270.971 607.483 271.004 607.284 271.047C606.687 271.17 606.084 271.299 605.493 271.445C605.488 271.445 605.488 271.445 605.477 271.445L580.493 277.559C581.09 277.413 581.692 277.279 582.3 277.155C582.488 277.118 582.687 277.08 582.886 277.048C583.3 276.967 583.725 276.892 584.144 276.822C584.343 276.79 584.532 276.763 584.731 276.736C585.446 276.623 586.161 276.532 586.892 276.446C586.941 276.44 586.994 276.435 587.043 276.429C587.806 276.343 588.581 276.29 589.361 276.241C589.56 276.23 589.764 276.225 589.968 276.209C590.501 276.182 591.038 276.171 591.576 276.161C591.737 276.161 591.909 276.155 592.071 276.155C592.764 276.15 593.458 276.161 594.163 276.182C594.345 276.187 594.539 276.204 594.727 276.209C595.195 276.23 595.674 276.257 596.152 276.29C596.389 276.306 596.631 276.327 596.873 276.343C597.308 276.381 597.755 276.419 598.19 276.467C598.443 276.494 598.696 276.521 598.954 276.548C599.341 276.596 599.728 276.65 600.121 276.709C600.379 276.741 600.637 276.784 600.901 276.817C601.315 276.876 601.739 276.951 602.153 277.026C602.39 277.069 602.627 277.107 602.863 277.15C603.229 277.22 603.6 277.301 603.976 277.376C604.235 277.43 604.503 277.478 604.762 277.537C605.154 277.629 605.552 277.72 605.945 277.817C606.181 277.871 606.423 277.924 606.66 277.989C607.305 278.15 607.956 278.328 608.601 278.51C609.44 278.752 610.268 279.016 611.096 279.29C611.29 279.349 611.483 279.419 611.677 279.478C612.5 279.774 613.312 280.065 614.118 280.371Z" fill="url(#paint40_linear_1147_10944)" stroke="white" stroke-width="1.2671"/>
</g>
<g filter="url(#filter3_di_1147_10944)">
<path fill-rule="evenodd" clip-rule="evenodd" d="M460.309 458.804C467.007 462.646 470.157 469.76 468.569 476.147L452.314 466.801L435.692 477.787C433.261 473.143 433.304 467.648 436.333 463.17C441.201 455.971 451.947 453.975 460.309 458.804ZM466.56 480.56C461.723 487.713 450.977 489.709 442.645 484.91C441.42 484.205 440.334 483.378 439.324 482.474C440.053 482.001 440.759 481.546 441.44 481.108C449.385 475.99 453.842 473.12 449.944 469.378L450.48 468.984L467.582 478.816C467.287 479.413 466.962 479.979 466.56 480.56ZM504.49 488.102C502.071 486.714 499.656 485.323 497.24 483.931L497.238 483.93C494.823 482.538 492.408 481.147 489.989 479.76C485.917 477.854 482.296 477.924 478.794 479.596C475.676 480.994 472.947 483.044 470.847 486.008C467.911 490.272 468.391 493.848 472.33 496.814C475.868 498.853 479.437 500.907 483.006 502.961C485.425 504.356 487.924 503.952 490.396 501.807L497.403 495.185C495.656 494.181 493.917 493.182 492.178 492.182L492.172 492.179C490.435 491.18 488.698 490.182 486.954 489.179C486.532 489.529 486.103 489.878 485.673 490.227L485.673 490.228L485.672 490.228L485.672 490.228L485.672 490.228C485.243 490.578 484.813 490.927 484.391 491.277L484.393 491.277C486.025 492.218 487.658 493.158 489.306 494.099C488.711 494.603 488.119 495.109 487.528 495.614C486.534 496.463 485.545 497.308 484.563 498.128C483.578 499.134 482.632 499.447 481.666 498.729C480.906 498.292 480.139 497.851 479.371 497.411L479.357 497.402C478.587 496.96 477.817 496.517 477.054 496.079C475.498 495.016 475.103 493.549 475.839 491.54C476.073 490.973 476.336 490.576 476.706 490.103C478.419 487.796 480.537 486.033 482.835 484.487C485.422 482.944 487.86 482.616 490.132 483.548L501.926 490.322L504.49 488.102ZM507.787 490.014L489.476 506.784L495.509 510.296L511.668 495.581L518.699 499.626C519.302 500.187 519.417 500.85 519.273 501.526C518.815 503.106 517.052 504.412 514.861 504.45C513.598 504.483 512.356 503.885 510.815 502.945L507.73 501.173L506.221 512.964C505.985 515.147 506.713 516.818 508.665 517.823L512.823 520.222L514.348 508.339C516.918 509.875 520.999 509.518 523.611 507.021C526.116 504.615 527.259 501.548 522.559 498.574L507.787 490.014ZM550.201 514.459L537.817 507.339C530.57 503.553 525.229 507.992 522.55 511.042C519.932 514.078 515.683 520.283 520.868 524.833L532.844 531.716L535.088 529.539L526.499 524.599C524.209 522.482 524.514 519.514 527.505 515.774L539.995 522.956L542.296 521.148L529.322 513.684C531.586 511.03 534.386 509.566 538.102 510.621L547.96 516.298L550.201 514.459ZM558.82 519.429L571.204 526.549L568.978 528.418L559.089 522.727C555.358 521.671 552.559 523.135 550.34 525.805L563.284 533.254L560.983 535.061L548.493 527.879C545.577 531.666 545.212 534.587 547.487 536.705L556.076 541.644L553.832 543.822L541.901 536.954C536.716 532.404 540.965 526.199 543.583 523.163C546.277 520.113 551.603 515.659 558.82 519.429Z" fill="url(#paint41_linear_1147_10944)"/>
</g>
<circle cx="875.5" cy="246.5" r="11.5" fill="url(#paint42_linear_1147_10944)" fill-opacity="0.7"/>
<g filter="url(#filter4_f_1147_10944)">
<circle cx="858" cy="328" r="6" fill="url(#paint43_linear_1147_10944)" fill-opacity="0.5"/>
</g>
<g filter="url(#filter5_f_1147_10944)">
<circle cx="1061.5" cy="494.5" r="19.5" fill="url(#paint44_linear_1147_10944)" fill-opacity="0.9"/>
</g>
<g opacity="0.7" filter="url(#filter6_f_1147_10944)">
<circle cx="211" cy="299" r="10" fill="url(#paint45_linear_1147_10944)"/>
</g>
<g filter="url(#filter7_f_1147_10944)">
<path d="M821.109 645.482L938 644L642 749L821.109 645.482Z" fill="url(#paint46_linear_1147_10944)"/>
</g>
</g>
<defs>
<filter id="filter0_f_1147_10944" x="-77" y="862" width="170" height="170" filterUnits="userSpaceOnUse" color-interpolation-filters="sRGB">
<feFlood flood-opacity="0" result="BackgroundImageFix"/>
<feBlend mode="normal" in="SourceGraphic" in2="BackgroundImageFix" result="shape"/>
<feGaussianBlur stdDeviation="14.5" result="effect1_foregroundBlur_1147_10944"/>
</filter>
<filter id="filter1_f_1147_10944" x="604.336" y="406.764" width="151.092" height="38.4363" filterUnits="userSpaceOnUse" color-interpolation-filters="sRGB">
<feFlood flood-opacity="0" result="BackgroundImageFix"/>
<feBlend mode="normal" in="SourceGraphic" in2="BackgroundImageFix" result="shape"/>
<feGaussianBlur stdDeviation="1" result="effect1_foregroundBlur_1147_10944"/>
</filter>
<filter id="filter2_f_1147_10944" x="556.125" y="380.198" width="151.092" height="38.4362" filterUnits="userSpaceOnUse" color-interpolation-filters="sRGB">
<feFlood flood-opacity="0" result="BackgroundImageFix"/>
<feBlend mode="normal" in="SourceGraphic" in2="BackgroundImageFix" result="shape"/>
<feGaussianBlur stdDeviation="1" result="effect1_foregroundBlur_1147_10944"/>
</filter>
<filter id="filter3_di_1147_10944" x="432.957" y="456.165" width="139.247" height="90.657" filterUnits="userSpaceOnUse" color-interpolation-filters="sRGB">
<feFlood flood-opacity="0" result="BackgroundImageFix"/>
<feColorMatrix in="SourceAlpha" type="matrix" values="0 0 0 0 0 0 0 0 0 0 0 0 0 0 0 0 0 0 127 0" result="hardAlpha"/>
<feOffset dy="2"/>
<feGaussianBlur stdDeviation="0.5"/>
<feComposite in2="hardAlpha" operator="out"/>
<feColorMatrix type="matrix" values="0 0 0 0 0 0 0 0 0 0.345098 0 0 0 0 0.929412 0 0 0 0.5 0"/>
<feBlend mode="normal" in2="BackgroundImageFix" result="effect1_dropShadow_1147_10944"/>
<feBlend mode="normal" in="SourceGraphic" in2="effect1_dropShadow_1147_10944" result="shape"/>
<feColorMatrix in="SourceAlpha" type="matrix" values="0 0 0 0 0 0 0 0 0 0 0 0 0 0 0 0 0 0 127 0" result="hardAlpha"/>
<feOffset dx="1"/>
<feGaussianBlur stdDeviation="0.5"/>
<feComposite in2="hardAlpha" operator="arithmetic" k2="-1" k3="1"/>
<feColorMatrix type="matrix" values="0 0 0 0 0.690196 0 0 0 0 0.768627 0 0 0 0 1 0 0 0 1 0"/>
<feBlend mode="normal" in2="shape" result="effect2_innerShadow_1147_10944"/>
</filter>
<filter id="filter4_f_1147_10944" x="848" y="318" width="20" height="20" filterUnits="userSpaceOnUse" color-interpolation-filters="sRGB">
<feFlood flood-opacity="0" result="BackgroundImageFix"/>
<feBlend mode="normal" in="SourceGraphic" in2="BackgroundImageFix" result="shape"/>
<feGaussianBlur stdDeviation="2" result="effect1_foregroundBlur_1147_10944"/>
</filter>
<filter id="filter5_f_1147_10944" x="1038" y="471" width="47" height="47" filterUnits="userSpaceOnUse" color-interpolation-filters="sRGB">
<feFlood flood-opacity="0" result="BackgroundImageFix"/>
<feBlend mode="normal" in="SourceGraphic" in2="BackgroundImageFix" result="shape"/>
<feGaussianBlur stdDeviation="2" result="effect1_foregroundBlur_1147_10944"/>
</filter>
<filter id="filter6_f_1147_10944" x="193" y="281" width="36" height="36" filterUnits="userSpaceOnUse" color-interpolation-filters="sRGB">
<feFlood flood-opacity="0" result="BackgroundImageFix"/>
<feBlend mode="normal" in="SourceGraphic" in2="BackgroundImageFix" result="shape"/>
<feGaussianBlur stdDeviation="4" result="effect1_foregroundBlur_1147_10944"/>
</filter>
<filter id="filter7_f_1147_10944" x="640" y="642" width="300" height="109" filterUnits="userSpaceOnUse" color-interpolation-filters="sRGB">
<feFlood flood-opacity="0" result="BackgroundImageFix"/>
<feBlend mode="normal" in="SourceGraphic" in2="BackgroundImageFix" result="shape"/>
<feGaussianBlur stdDeviation="1" result="effect1_foregroundBlur_1147_10944"/>
</filter>
<linearGradient id="paint0_linear_1147_10944" x1="20.6666" y1="16.8001" x2="1803.36" y2="1248.78" gradientUnits="userSpaceOnUse">
<stop offset="0.130208" stop-color="#EBF4FF"/>
<stop offset="1" stop-color="#5F9FFF"/>
</linearGradient>
<linearGradient id="paint1_linear_1147_10944" x1="20.6666" y1="16.8001" x2="1803.36" y2="1248.78" gradientUnits="userSpaceOnUse">
<stop offset="0.130208" stop-color="#EBF4FF"/>
<stop offset="1" stop-color="#5F9FFF"/>
</linearGradient>
<linearGradient id="paint2_linear_1147_10944" x1="219.5" y1="-22.5" x2="141.5" y2="370" gradientUnits="userSpaceOnUse">
<stop stop-color="white"/>
<stop offset="1" stop-color="white" stop-opacity="0"/>
</linearGradient>
<linearGradient id="paint3_linear_1147_10944" x1="459" y1="-26.5" x2="435.461" y2="212.996" gradientUnits="userSpaceOnUse">
<stop stop-color="white"/>
<stop offset="1" stop-color="white" stop-opacity="0"/>
</linearGradient>
<linearGradient id="paint4_linear_1147_10944" x1="54.9501" y1="-95.5156" x2="1423.37" y2="875.951" gradientUnits="userSpaceOnUse">
<stop offset="0.0104167" stop-color="#F2F9FF"/>
<stop offset="1" stop-color="#2B7FFF"/>
</linearGradient>
<linearGradient id="paint5_linear_1147_10944" x1="192.549" y1="70.8048" x2="1240.83" y2="816.461" gradientUnits="userSpaceOnUse">
<stop offset="0.0104167" stop-color="#F2F9FF"/>
<stop offset="1" stop-color="#2B7FFF"/>
</linearGradient>
<linearGradient id="paint6_linear_1147_10944" x1="20.0442" y1="1000.69" x2="-4.12809" y2="885.935" gradientUnits="userSpaceOnUse">
<stop stop-color="#FF360A"/>
<stop offset="1" stop-color="#FFC6BA"/>
</linearGradient>
<linearGradient id="paint7_linear_1147_10944" x1="106.408" y1="615.484" x2="1149.01" y2="644.452" gradientUnits="userSpaceOnUse">
<stop offset="0.0104167" stop-color="#F2F7FF"/>
<stop offset="1" stop-color="#1573FF"/>
</linearGradient>
<linearGradient id="paint8_linear_1147_10944" x1="259.394" y1="637.995" x2="953.601" y2="637.995" gradientUnits="userSpaceOnUse">
<stop stop-color="#5498FF"/>
<stop offset="1" stop-color="#0054E2"/>
</linearGradient>
<linearGradient id="paint9_linear_1147_10944" x1="545.427" y1="548.079" x2="211.694" y2="590.423" gradientUnits="userSpaceOnUse">
<stop stop-color="#005FFF"/>
<stop offset="1" stop-color="#9AC2FF"/>
</linearGradient>
<linearGradient id="paint10_linear_1147_10944" x1="860.351" y1="701.827" x2="590.406" y2="757.841" gradientUnits="userSpaceOnUse">
<stop stop-color="#005FFF"/>
<stop offset="1" stop-color="#68A4FF"/>
</linearGradient>
<linearGradient id="paint11_linear_1147_10944" x1="277.073" y1="625.515" x2="934.959" y2="625.515" gradientUnits="userSpaceOnUse">
<stop offset="0.114583" stop-color="#F2F6FF"/>
<stop offset="1" stop-color="#88B4FF"/>
</linearGradient>
<linearGradient id="paint12_linear_1147_10944" x1="633.991" y1="820.51" x2="294.353" y2="624.459" gradientUnits="userSpaceOnUse">
<stop stop-color="#5594FF"/>
<stop offset="1" stop-color="#B9D5FF"/>
</linearGradient>
<linearGradient id="paint13_linear_1147_10944" x1="954.142" y1="744.763" x2="619.901" y2="787.258" gradientUnits="userSpaceOnUse">
<stop stop-color="#005FFF"/>
<stop offset="1" stop-color="#9AC2FF"/>
</linearGradient>
<linearGradient id="paint14_linear_1147_10944" x1="663.312" y1="555.499" x2="814.076" y2="646.892" gradientUnits="userSpaceOnUse">
<stop stop-color="#0058ED"/>
<stop offset="1" stop-color="#7BB0FF"/>
</linearGradient>
<linearGradient id="paint15_linear_1147_10944" x1="639.295" y1="733.207" x2="487.552" y2="523.745" gradientUnits="userSpaceOnUse">
<stop stop-color="#005BF4"/>
<stop offset="1" stop-color="#F2F6FF"/>
</linearGradient>
<linearGradient id="paint16_linear_1147_10944" x1="410.682" y1="752.617" x2="629.49" y2="596.817" gradientUnits="userSpaceOnUse">
<stop stop-color="#2E82FF"/>
<stop offset="1" stop-color="#ACCAFF"/>
</linearGradient>
<linearGradient id="paint17_linear_1147_10944" x1="644.055" y1="748.587" x2="812.927" y2="632.873" gradientUnits="userSpaceOnUse">
<stop stop-color="#60A0FF"/>
<stop offset="1" stop-color="#C1D8FF"/>
</linearGradient>
<linearGradient id="paint18_linear_1147_10944" x1="404.4" y1="403.317" x2="641.514" y2="535.682" gradientUnits="userSpaceOnUse">
<stop stop-color="#D3E5FF"/>
<stop offset="1" stop-color="#1076FF"/>
</linearGradient>
<linearGradient id="paint19_linear_1147_10944" x1="756.523" y1="523.138" x2="693.48" y2="432.151" gradientUnits="userSpaceOnUse">
<stop stop-color="#0058ED"/>
<stop offset="1" stop-color="#B0C4FF"/>
</linearGradient>
<linearGradient id="paint20_linear_1147_10944" x1="746.336" y1="423.458" x2="572.07" y2="407.277" gradientUnits="userSpaceOnUse">
<stop stop-color="#C5DAFF"/>
<stop offset="1" stop-color="#F3F6FF"/>
</linearGradient>
<linearGradient id="paint21_linear_1147_10944" x1="657.081" y1="334.656" x2="568.598" y2="487.92" gradientUnits="userSpaceOnUse">
<stop stop-color="#B4D0FF"/>
<stop offset="1" stop-color="#E4EDFF"/>
</linearGradient>
<linearGradient id="paint22_linear_1147_10944" x1="800.504" y1="431.634" x2="422.93" y2="390.205" gradientUnits="userSpaceOnUse">
<stop stop-color="#A3C5FF"/>
<stop offset="1" stop-color="#F4F8FF"/>
</linearGradient>
<linearGradient id="paint23_linear_1147_10944" x1="465.273" y1="398.681" x2="636.974" y2="493.758" gradientUnits="userSpaceOnUse">
<stop stop-color="#D3E5FF"/>
<stop offset="1" stop-color="#1076FF"/>
</linearGradient>
<linearGradient id="paint24_linear_1147_10944" x1="719.283" y1="485.818" x2="673.308" y2="419.997" gradientUnits="userSpaceOnUse">
<stop stop-color="#0058ED"/>
<stop offset="1" stop-color="#B0C4FF"/>
</linearGradient>
<linearGradient id="paint25_linear_1147_10944" x1="751.009" y1="419.274" x2="478.588" y2="389.624" gradientUnits="userSpaceOnUse">
<stop stop-color="#A3C5FF"/>
<stop offset="1" stop-color="#F4F8FF"/>
</linearGradient>
<linearGradient id="paint26_linear_1147_10944" x1="627.521" y1="620.001" x2="511.533" y2="646.307" gradientUnits="userSpaceOnUse">
<stop stop-color="#649DFF"/>
<stop offset="1" stop-color="#E1E9FF"/>
</linearGradient>
<linearGradient id="paint27_linear_1147_10944" x1="613.981" y1="649.754" x2="520.249" y2="615.81" gradientUnits="userSpaceOnUse">
<stop stop-color="#005DD8"/>
<stop offset="1" stop-color="#539AFF"/>
</linearGradient>
<linearGradient id="paint28_linear_1147_10944" x1="628.271" y1="637.387" x2="418.076" y2="559.581" gradientUnits="userSpaceOnUse">
<stop stop-color="#649DFF"/>
<stop offset="1" stop-color="#E1E9FF"/>
</linearGradient>
<linearGradient id="paint29_linear_1147_10944" x1="554.464" y1="683.916" x2="415.22" y2="505.074" gradientUnits="userSpaceOnUse">
<stop offset="0.3317" stop-color="#338BFF"/>
<stop offset="1" stop-color="#A0C7FF"/>
</linearGradient>
<linearGradient id="paint30_linear_1147_10944" x1="462.483" y1="558.712" x2="464.652" y2="481.139" gradientUnits="userSpaceOnUse">
<stop stop-color="#005BF4"/>
<stop offset="1" stop-color="#B6D3FF"/>
</linearGradient>
<linearGradient id="paint31_linear_1147_10944" x1="623.512" y1="584.466" x2="595.049" y2="551.884" gradientUnits="userSpaceOnUse">
<stop stop-color="#0058ED"/>
<stop offset="1" stop-color="#B0C4FF"/>
</linearGradient>
<linearGradient id="paint32_linear_1147_10944" x1="515.468" y1="537.484" x2="450.186" y2="411.435" gradientUnits="userSpaceOnUse">
<stop stop-color="#6AA2FF"/>
<stop offset="1" stop-color="#EDF5FF"/>
</linearGradient>
<linearGradient id="paint33_linear_1147_10944" x1="629.457" y1="441.232" x2="685.626" y2="478.518" gradientUnits="userSpaceOnUse">
<stop stop-color="#B30101"/>
<stop offset="1" stop-color="#CAACBC" stop-opacity="0.04"/>
</linearGradient>
<linearGradient id="paint34_linear_1147_10944" x1="579.239" y1="412.585" x2="640.507" y2="459.018" gradientUnits="userSpaceOnUse">
<stop stop-color="#0658E4"/>
<stop offset="1" stop-color="#B3C6FF" stop-opacity="0.1"/>
</linearGradient>
<linearGradient id="paint35_linear_1147_10944" x1="577.528" y1="355.76" x2="622.413" y2="385.69" gradientUnits="userSpaceOnUse">
<stop stop-color="#0058ED"/>
<stop offset="1" stop-color="#7BB0FF"/>
</linearGradient>
<linearGradient id="paint36_linear_1147_10944" x1="643.477" y1="438.242" x2="620.652" y2="342.174" gradientUnits="userSpaceOnUse">
<stop stop-color="#FF360A"/>
<stop offset="1" stop-color="#FFC6BA"/>
</linearGradient>
<linearGradient id="paint37_linear_1147_10944" x1="662.855" y1="437.623" x2="679.642" y2="360.978" gradientUnits="userSpaceOnUse">
<stop stop-color="#FFDED7"/>
<stop offset="1" stop-color="#F13A00"/>
</linearGradient>
<linearGradient id="paint38_linear_1147_10944" x1="648.703" y1="356.952" x2="652.134" y2="347.311" gradientUnits="userSpaceOnUse">
<stop offset="0.1354" stop-color="#E24A19"/>
<stop offset="0.9884" stop-color="#849FE7"/>
</linearGradient>
<linearGradient id="paint39_linear_1147_10944" x1="614.252" y1="376.884" x2="582.952" y2="275.573" gradientUnits="userSpaceOnUse">
<stop stop-color="#0066FF"/>
<stop offset="1" stop-color="#F8FBFF"/>
</linearGradient>
<linearGradient id="paint40_linear_1147_10944" x1="649.402" y1="359.053" x2="635.667" y2="294.347" gradientUnits="userSpaceOnUse">
<stop stop-color="#5594FF"/>
<stop offset="1" stop-color="#E3EEFF"/>
</linearGradient>
<linearGradient id="paint41_linear_1147_10944" x1="556.158" y1="529.783" x2="439.074" y2="460.419" gradientUnits="userSpaceOnUse">
<stop stop-color="#D8E1FD"/>
<stop offset="1" stop-color="#F0F7FF"/>
</linearGradient>
<linearGradient id="paint42_linear_1147_10944" x1="877.973" y1="257.525" x2="873.009" y2="233.96" gradientUnits="userSpaceOnUse">
<stop stop-color="#FF360A"/>
<stop offset="1" stop-color="#FFC6BA"/>
</linearGradient>
<linearGradient id="paint43_linear_1147_10944" x1="858.678" y1="330.841" x2="855.99" y2="321.89" gradientUnits="userSpaceOnUse">
<stop stop-color="#0066FF"/>
<stop offset="1" stop-color="#F8FBFF"/>
</linearGradient>
<linearGradient id="paint44_linear_1147_10944" x1="1063.7" y1="503.733" x2="1054.97" y2="474.644" gradientUnits="userSpaceOnUse">
<stop stop-color="#0066FF"/>
<stop offset="1" stop-color="#F8FBFF"/>
</linearGradient>
<linearGradient id="paint45_linear_1147_10944" x1="212.702" y1="310.607" x2="208.141" y2="295.577" gradientUnits="userSpaceOnUse">
<stop stop-color="#5594FF"/>
<stop offset="1" stop-color="#E3EEFF"/>
</linearGradient>
<linearGradient id="paint46_linear_1147_10944" x1="684.489" y1="739.365" x2="850.977" y2="807.173" gradientUnits="userSpaceOnUse">
<stop stop-color="#0658E4"/>
<stop offset="1" stop-color="#B3C6FF" stop-opacity="0"/>
</linearGradient>
</defs>
</svg>
